<svg width="744" height="240" viewBox="0 0 744 240" fill="none" xmlns="http://www.w3.org/2000/svg">
<path d="M83.7843 7.3686C100.801 -2.4562 121.767 -2.4562 138.784 7.3686L195.069 39.8643C212.086 49.6891 222.569 67.8461 222.569 87.4957V152.487C222.569 172.137 212.086 190.294 195.069 200.119L138.784 232.614C121.767 242.439 100.801 242.439 83.7843 232.614L27.5 200.119C10.4829 190.294 0 172.137 0 152.487V87.4957C0 67.8461 10.4829 49.6891 27.5 39.8643L83.7843 7.3686Z" fill="#2939C6"/>
<path d="M136.784 45.4915V193.491H102.53V84.1178L68.7843 93.9777V67.9558L133.633 45.4915H136.784Z" fill="white"/>
<path d="M389.516 159.531V182.69H326.385V159.531H389.516ZM337.107 57.8013V182.69H307V57.8013H337.107Z" fill="#2939C6"/>
<path d="M502.396 117.758V122.819C502.396 132.368 501.052 140.946 498.364 148.551C495.734 156.1 491.988 162.561 487.128 167.936C482.267 173.255 476.52 177.343 469.887 180.202C463.254 183.004 455.934 184.405 447.928 184.405C439.866 184.405 432.489 183.004 425.798 180.202C419.165 177.343 413.39 173.255 408.472 167.936C403.611 162.561 399.837 156.1 397.15 148.551C394.519 140.946 393.204 132.368 393.204 122.819V117.758C393.204 108.208 394.519 99.6309 397.15 92.0255C399.837 84.4201 403.583 77.9584 408.386 72.6404C413.247 67.2651 418.994 63.1765 425.627 60.3745C432.317 57.5154 439.694 56.0858 447.757 56.0858C455.763 56.0858 463.082 57.5154 469.715 60.3745C476.406 63.1765 482.181 67.2651 487.042 72.6404C491.902 77.9584 495.677 84.4201 498.364 92.0255C501.052 99.6309 502.396 108.208 502.396 117.758ZM471.86 122.819V117.586C471.86 111.411 471.316 105.978 470.23 101.289C469.201 96.543 467.657 92.5688 465.598 89.3665C463.539 86.1642 460.995 83.7625 457.964 82.1614C454.991 80.5031 451.588 79.6739 447.757 79.6739C443.754 79.6739 440.266 80.5031 437.292 82.1614C434.319 83.7625 431.831 86.1642 429.83 89.3665C427.828 92.5688 426.313 96.543 425.284 101.289C424.312 105.978 423.826 111.411 423.826 117.586V122.819C423.826 128.937 424.312 134.37 425.284 139.116C426.313 143.805 427.828 147.779 429.83 151.039C431.888 154.298 434.405 156.757 437.378 158.415C440.409 160.074 443.926 160.903 447.928 160.903C451.76 160.903 455.162 160.074 458.136 158.415C461.109 156.757 463.597 154.298 465.598 151.039C467.657 147.779 469.201 143.805 470.23 139.116C471.316 134.37 471.86 128.937 471.86 122.819Z" fill="#2939C6"/>
<path d="M620.165 115.957V167.25C618.049 169.595 614.789 172.111 610.386 174.798C606.04 177.429 600.551 179.688 593.918 181.575C587.284 183.462 579.479 184.405 570.501 184.405C562.209 184.405 554.69 183.09 547.942 180.46C541.195 177.772 535.39 173.855 530.53 168.708C525.726 163.505 522.009 157.157 519.379 149.666C516.806 142.118 515.519 133.483 515.519 123.762V116.815C515.519 107.093 516.834 98.4587 519.465 90.9105C522.095 83.3622 525.784 77.0149 530.53 71.8684C535.333 66.6647 540.966 62.719 547.427 60.0314C553.946 57.3438 561.094 56 568.871 56C580.365 56 589.715 57.8299 596.92 61.4896C604.125 65.0922 609.586 70.0957 613.303 76.5002C617.02 82.8476 619.278 90.1957 620.079 98.5444H591.173C590.601 94.4272 589.514 90.939 587.913 88.0799C586.369 85.1635 584.139 82.962 581.223 81.4752C578.306 79.9312 574.532 79.1593 569.901 79.1593C566.298 79.1593 563.01 79.9312 560.036 81.4752C557.12 83.0191 554.633 85.3637 552.574 88.5088C550.515 91.5967 548.914 95.4851 547.771 100.174C546.684 104.863 546.141 110.353 546.141 116.643V123.762C546.141 129.995 546.656 135.456 547.685 140.145C548.771 144.834 550.372 148.751 552.488 151.897C554.661 154.984 557.406 157.329 560.723 158.93C564.096 160.474 568.071 161.246 572.645 161.246C575.848 161.246 578.592 160.989 580.88 160.474C583.167 159.902 585.054 159.216 586.541 158.415C588.085 157.558 589.257 156.757 590.058 156.014V136.629H569.129V115.957H620.165Z" fill="#2939C6"/>
<path d="M743.424 117.758V122.819C743.424 132.368 742.08 140.946 739.392 148.551C736.762 156.1 733.016 162.561 728.156 167.936C723.295 173.255 717.548 177.343 710.915 180.202C704.281 183.004 696.962 184.405 688.956 184.405C680.894 184.405 673.517 183.004 666.826 180.202C660.193 177.343 654.418 173.255 649.5 167.936C644.639 162.561 640.865 156.1 638.177 148.551C635.547 140.946 634.232 132.368 634.232 122.819V117.758C634.232 108.208 635.547 99.6309 638.177 92.0255C640.865 84.4201 644.611 77.9584 649.414 72.6404C654.275 67.2651 660.022 63.1765 666.655 60.3745C673.345 57.5154 680.722 56.0858 688.785 56.0858C696.79 56.0858 704.11 57.5154 710.743 60.3745C717.434 63.1765 723.209 67.2651 728.07 72.6404C732.93 77.9584 736.704 84.4201 739.392 92.0255C742.08 99.6309 743.424 108.208 743.424 117.758ZM712.888 122.819V117.586C712.888 111.411 712.344 105.978 711.258 101.289C710.229 96.543 708.685 92.5688 706.626 89.3665C704.567 86.1642 702.023 83.7625 698.992 82.1614C696.018 80.5031 692.616 79.6739 688.785 79.6739C684.782 79.6739 681.294 80.5031 678.32 82.1614C675.347 83.7625 672.859 86.1642 670.858 89.3665C668.856 92.5688 667.341 96.543 666.312 101.289C665.34 105.978 664.854 111.411 664.854 117.586V122.819C664.854 128.937 665.34 134.37 666.312 139.116C667.341 143.805 668.856 147.779 670.858 151.039C672.916 154.298 675.432 156.757 678.406 158.415C681.437 160.074 684.954 160.903 688.956 160.903C692.788 160.903 696.19 160.074 699.164 158.415C702.137 156.757 704.625 154.298 706.626 151.039C708.685 147.779 710.229 143.805 711.258 139.116C712.344 134.37 712.888 128.937 712.888 122.819Z" fill="#2939C6"/>
</svg>
